<svg xmlns="http://www.w3.org/2000/svg" width="998.92" height="500.47000000000014" viewBox="0 0 998.92 500.47000000000014">
<rect width="100%" height="100%" fill="#11151c"/>
<rect x="4" y="4" width="990.92" height="492.47000000000014" rx="12" fill="#1b222c" stroke="#667080" stroke-width="2"/>
<g><line x1="630.3299999999999" y1="178.5900000000001" x2="614.0899999999999" y2="178.6" stroke="#ff5d4a" stroke-width="2.5" stroke-linecap="round" opacity="0.88"/>
<line x1="625.505" y1="168.5900000000001" x2="628.5050000000001" y2="171.59000000000006" stroke="#ff5d4a" stroke-width="3" stroke-linecap="round" opacity="0.88"/>
<line x1="610.0999999999999" y1="168.5900000000001" x2="600.0899999999999" y2="178.6" stroke="#ff5d4a" stroke-width="3" stroke-linecap="round" opacity="0.88"/>
<line x1="625.505" y1="168.5900000000001" x2="610.0999999999999" y2="168.5900000000001" stroke="#ff5d4a" stroke-width="3" stroke-linecap="round" opacity="0.88"/>
<line x1="600.0899999999999" y1="178.6" x2="568.15" y2="178.6" stroke="#ff5d4a" stroke-width="3" stroke-linecap="round" opacity="0.88"/>
<line x1="630.3299999999999" y1="163.5900000000001" x2="630.3299999999999" y2="168.5900000000001" stroke="#ff5d4a" stroke-width="3" stroke-linecap="round" opacity="0.88"/>
<line x1="630.3299999999999" y1="168.5900000000001" x2="625.505" y2="168.5900000000001" stroke="#ff5d4a" stroke-width="3" stroke-linecap="round" opacity="0.88"/>
<line x1="630.3299999999999" y1="158.5900000000001" x2="630.3299999999999" y2="163.5900000000001" stroke="#ff5d4a" stroke-width="3" stroke-linecap="round" opacity="0.88"/>
<line x1="628.5050000000001" y1="171.59000000000006" x2="630.3299999999999" y2="173.5900000000001" stroke="#ff5d4a" stroke-width="3" stroke-linecap="round" opacity="0.88"/>
<line x1="659.4300000000001" y1="199.76500000000001" x2="656.9300000000001" y2="202.26500000000001" stroke="#ff5d4a" stroke-width="2.5" stroke-linecap="round" opacity="0.88"/>
<line x1="666.9300000000001" y1="190.19000000000005" x2="666.9300000000001" y2="197.26500000000001" stroke="#ff5d4a" stroke-width="2.5" stroke-linecap="round" opacity="0.88"/>
<line x1="656.9300000000001" y1="223.94000000000005" x2="668.1600000000001" y2="235.1700000000001" stroke="#ff5d4a" stroke-width="2.5" stroke-linecap="round" opacity="0.88"/>
<line x1="656.9300000000001" y1="202.26500000000001" x2="656.9300000000001" y2="223.94000000000005" stroke="#ff5d4a" stroke-width="2.5" stroke-linecap="round" opacity="0.88"/>
<line x1="664.4300000000001" y1="199.76500000000001" x2="659.4300000000001" y2="199.76500000000001" stroke="#ff5d4a" stroke-width="2.5" stroke-linecap="round" opacity="0.88"/>
<line x1="668.1600000000001" y1="235.1700000000001" x2="675.1599999999999" y2="242.17000000000013" stroke="#ff5d4a" stroke-width="2.5" stroke-linecap="round" opacity="0.88"/>
<line x1="666.9300000000001" y1="197.26500000000001" x2="664.4300000000001" y2="199.76500000000001" stroke="#ff5d4a" stroke-width="2.5" stroke-linecap="round" opacity="0.88"/>
<line x1="675.1599999999999" y1="242.17000000000013" x2="675.1599999999999" y2="252.38" stroke="#ff5d4a" stroke-width="2.5" stroke-linecap="round" opacity="0.88"/>
<line x1="626.9300000000001" y1="131.99000000000012" x2="621.9300000000001" y2="136.99000000000012" stroke="#ff5d4a" stroke-width="2.5" stroke-linecap="round" opacity="0.88"/>
<line x1="621.9300000000001" y1="136.99000000000012" x2="621.9300000000001" y2="156.99000000000012" stroke="#ff5d4a" stroke-width="2.5" stroke-linecap="round" opacity="0.88"/>
<line x1="624.77" y1="236.99000000000012" x2="624.77" y2="241.99000000000012" stroke="#ff5d4a" stroke-width="2.5" stroke-linecap="round" opacity="0.88"/>
<line x1="624.77" y1="241.99000000000012" x2="650.1599999999999" y2="267.38" stroke="#ff5d4a" stroke-width="2.5" stroke-linecap="round" opacity="0.88"/>
<line x1="624.4300000000001" y1="209.49000000000012" x2="624.4300000000001" y2="236.65000000000006" stroke="#ff5d4a" stroke-width="2.5" stroke-linecap="round" opacity="0.88"/>
<line x1="624.4300000000001" y1="236.65000000000006" x2="624.77" y2="236.99000000000012" stroke="#ff5d4a" stroke-width="2.5" stroke-linecap="round" opacity="0.88"/>
<line x1="621.9300000000001" y1="156.99000000000012" x2="619.4300000000001" y2="159.49000000000012" stroke="#ff5d4a" stroke-width="2.5" stroke-linecap="round" opacity="0.88"/>
<line x1="636.9300000000001" y1="131.99000000000012" x2="626.9300000000001" y2="131.99000000000012" stroke="#ff5d4a" stroke-width="2.5" stroke-linecap="round" opacity="0.88"/>
<line x1="624.77" y1="241.99000000000012" x2="64.15999999999997" y2="241.99000000000012" stroke="#ff5d4a" stroke-width="2.5" stroke-linecap="round" opacity="0.88"/>
<line x1="64.15999999999997" y1="241.99000000000012" x2="51.50000000000006" y2="254.65000000000003" stroke="#ff5d4a" stroke-width="2.5" stroke-linecap="round" opacity="0.88"/>
<line x1="650.1599999999999" y1="267.38" x2="675.1599999999999" y2="267.38" stroke="#ff5d4a" stroke-width="2.5" stroke-linecap="round" opacity="0.88"/>
<line x1="619.4300000000001" y1="159.49000000000012" x2="619.4300000000001" y2="204.49000000000012" stroke="#3e91ff" stroke-width="2.5" stroke-linecap="round" opacity="0.88"/>
<line x1="619.4300000000001" y1="204.49000000000012" x2="624.4300000000001" y2="209.49000000000012" stroke="#3e91ff" stroke-width="2.5" stroke-linecap="round" opacity="0.88"/>
<line x1="662.51" y1="245.87000000000003" x2="656.5100000000001" y2="239.8700000000001" stroke="#ff5d4a" stroke-width="3" stroke-linecap="round" opacity="0.88"/>
<line x1="756.5100000000001" y1="242.87000000000006" x2="729.51" y2="269.8700000000001" stroke="#ff5d4a" stroke-width="3" stroke-linecap="round" opacity="0.88"/>
<line x1="864.83" y1="288.5900000000001" x2="864.83" y2="287.72" stroke="#ff5d4a" stroke-width="3" stroke-linecap="round" opacity="0.88"/>
<line x1="646.18" y1="192.76500000000013" x2="644.6799999999998" y2="192.76500000000013" stroke="#ff5d4a" stroke-width="3" stroke-linecap="round" opacity="0.88"/>
<line x1="644.6799999999998" y1="192.76500000000013" x2="643.9300000000001" y2="192.0150000000001" stroke="#ff5d4a" stroke-width="3" stroke-linecap="round" opacity="0.88"/>
<line x1="692.51" y1="242.87000000000006" x2="692.51" y2="230.87000000000003" stroke="#ff5d4a" stroke-width="3" stroke-linecap="round" opacity="0.88"/>
<line x1="674.8699999999999" y1="221.87000000000012" x2="666.5" y2="213.50000000000009" stroke="#ff5d4a" stroke-width="3" stroke-linecap="round" opacity="0.88"/>
<line x1="756.5100000000001" y1="242.87000000000006" x2="756.5100000000001" y2="260.27" stroke="#ff5d4a" stroke-width="3" stroke-linecap="round" opacity="0.88"/>
<line x1="648.9300000000001" y1="223.29000000000008" x2="648.9300000000001" y2="190.46234000000013" stroke="#ff5d4a" stroke-width="3" stroke-linecap="round" opacity="0.88"/>
<line x1="643.9300000000001" y1="192.0150000000001" x2="641.9300000000001" y2="190.19000000000005" stroke="#ff5d4a" stroke-width="3" stroke-linecap="round" opacity="0.88"/>
<line x1="656.5100000000001" y1="239.8700000000001" x2="656.5100000000001" y2="230.87000000000003" stroke="#ff5d4a" stroke-width="3" stroke-linecap="round" opacity="0.88"/>
<line x1="656.5100000000001" y1="230.87000000000003" x2="648.9300000000001" y2="223.29000000000008" stroke="#ff5d4a" stroke-width="3" stroke-linecap="round" opacity="0.88"/>
<line x1="646.9300000000001" y1="192.0150000000001" x2="646.18" y2="192.76500000000013" stroke="#ff5d4a" stroke-width="3" stroke-linecap="round" opacity="0.88"/>
<line x1="646.9300000000001" y1="190.19000000000005" x2="646.9300000000001" y2="192.0150000000001" stroke="#ff5d4a" stroke-width="3" stroke-linecap="round" opacity="0.88"/>
<line x1="683.51" y1="221.87000000000012" x2="674.8699999999999" y2="221.87000000000012" stroke="#ff5d4a" stroke-width="3" stroke-linecap="round" opacity="0.88"/>
<line x1="861.8299999999999" y1="285.59000000000015" x2="870.84" y2="294.59000000000003" stroke="#ff5d4a" stroke-width="3" stroke-linecap="round" opacity="0.88"/>
<line x1="648.9300000000001" y1="190.45000000000002" x2="647.1899999999999" y2="190.45000000000002" stroke="#ff5d4a" stroke-width="3" stroke-linecap="round" opacity="0.88"/>
<line x1="756.5100000000001" y1="260.27" x2="767.31" y2="271.07" stroke="#ff5d4a" stroke-width="3" stroke-linecap="round" opacity="0.88"/>
<line x1="818.31" y1="275.07000000000005" x2="828.8300000000002" y2="285.59000000000015" stroke="#ff5d4a" stroke-width="3" stroke-linecap="round" opacity="0.88"/>
<line x1="767.31" y1="284.0700000000001" x2="776.31" y2="275.07000000000005" stroke="#ff5d4a" stroke-width="3" stroke-linecap="round" opacity="0.88"/>
<line x1="647.1899999999999" y1="190.45000000000002" x2="646.9300000000001" y2="190.19000000000005" stroke="#ff5d4a" stroke-width="3" stroke-linecap="round" opacity="0.88"/>
<line x1="692.51" y1="230.87000000000003" x2="683.51" y2="221.87000000000012" stroke="#ff5d4a" stroke-width="3" stroke-linecap="round" opacity="0.88"/>
<line x1="879.7399999999999" y1="272.81000000000006" x2="879.7399999999999" y2="246.95000000000007" stroke="#ff5d4a" stroke-width="3" stroke-linecap="round" opacity="0.88"/>
<line x1="776.31" y1="275.07000000000005" x2="818.31" y2="275.07000000000005" stroke="#ff5d4a" stroke-width="3" stroke-linecap="round" opacity="0.88"/>
<line x1="828.8300000000002" y1="285.59000000000015" x2="861.8299999999999" y2="285.59000000000015" stroke="#ff5d4a" stroke-width="3" stroke-linecap="round" opacity="0.88"/>
<line x1="767.31" y1="291.31" x2="767.31" y2="317.17000000000013" stroke="#ff5d4a" stroke-width="3" stroke-linecap="round" opacity="0.88"/>
<line x1="767.31" y1="271.07" x2="767.31" y2="291.31" stroke="#ff5d4a" stroke-width="3" stroke-linecap="round" opacity="0.88"/>
<line x1="729.51" y1="269.8700000000001" x2="719.51" y2="269.8700000000001" stroke="#ff5d4a" stroke-width="3" stroke-linecap="round" opacity="0.88"/>
<line x1="719.51" y1="269.8700000000001" x2="692.51" y2="242.87000000000006" stroke="#ff5d4a" stroke-width="3" stroke-linecap="round" opacity="0.88"/>
<line x1="649.7450000000001" y1="189.57000000000008" x2="651.18" y2="189.50500000000005" stroke="#ff5d4a" stroke-width="3" stroke-linecap="round" opacity="0.88"/>
<line x1="864.83" y1="287.72" x2="879.7399999999999" y2="272.81000000000006" stroke="#ff5d4a" stroke-width="3" stroke-linecap="round" opacity="0.88"/>
<line x1="648.9300000000001" y1="190.46234000000013" x2="649.7450000000001" y2="189.57000000000008" stroke="#ff5d4a" stroke-width="3" stroke-linecap="round" opacity="0.88"/>
<line x1="651.18" y1="189.50500000000005" x2="651.9300000000001" y2="190.19000000000005" stroke="#ff5d4a" stroke-width="3" stroke-linecap="round" opacity="0.88"/>
<line x1="665.5099999999999" y1="242.87000000000006" x2="662.51" y2="245.87000000000003" stroke="#3e91ff" stroke-width="3" stroke-linecap="round" opacity="0.88"/>
<line x1="692.51" y1="242.87000000000006" x2="665.5099999999999" y2="242.87000000000006" stroke="#3e91ff" stroke-width="3" stroke-linecap="round" opacity="0.88"/>
<line x1="683.1600000000001" y1="112.4900000000001" x2="710" y2="85.65000000000012" stroke="#ff5d4a" stroke-width="2.5" stroke-linecap="round" opacity="0.88"/>
<line x1="633.1600000000001" y1="236.70000000000002" x2="633.1600000000001" y2="234.20000000000002" stroke="#ff5d4a" stroke-width="2.5" stroke-linecap="round" opacity="0.88"/>
<line x1="650.6600000000001" y1="112.4900000000001" x2="683.1600000000001" y2="112.4900000000001" stroke="#ff5d4a" stroke-width="2.5" stroke-linecap="round" opacity="0.88"/>
<line x1="633.1600000000001" y1="234.20000000000002" x2="638.1600000000001" y2="229.20000000000002" stroke="#ff5d4a" stroke-width="2.5" stroke-linecap="round" opacity="0.88"/>
<line x1="710" y1="85.65000000000012" x2="770" y2="85.65000000000012" stroke="#ff5d4a" stroke-width="2.5" stroke-linecap="round" opacity="0.88"/>
<line x1="638.1600000000001" y1="229.20000000000002" x2="638.1600000000001" y2="124.9900000000001" stroke="#3e91ff" stroke-width="2.5" stroke-linecap="round" opacity="0.88"/>
<line x1="638.1600000000001" y1="124.9900000000001" x2="650.6600000000001" y2="112.4900000000001" stroke="#3e91ff" stroke-width="2.5" stroke-linecap="round" opacity="0.88"/>
<line x1="616.9300000000001" y1="218.99" x2="616.44" y2="219.48000000000008" stroke="#ff5d4a" stroke-width="2.5" stroke-linecap="round" opacity="0.88"/>
<line x1="633.23" y1="190.19000000000005" x2="616.9300000000001" y2="206.49" stroke="#ff5d4a" stroke-width="2.5" stroke-linecap="round" opacity="0.88"/>
<line x1="636.9300000000001" y1="190.19000000000005" x2="633.23" y2="190.19000000000005" stroke="#ff5d4a" stroke-width="2.5" stroke-linecap="round" opacity="0.88"/>
<line x1="616.9300000000001" y1="206.49" x2="616.9300000000001" y2="218.99" stroke="#ff5d4a" stroke-width="2.5" stroke-linecap="round" opacity="0.88"/>
<line x1="800.3" y1="117.65" x2="800.3" y2="113.15000000000012" stroke="#ff5d4a" stroke-width="3" stroke-linecap="round" opacity="0.88"/>
<line x1="819.53" y1="98.10000000000002" x2="813.03" y2="98.10000000000002" stroke="#ff5d4a" stroke-width="3" stroke-linecap="round" opacity="0.88"/>
<line x1="814.4999999999999" y1="379.20000000000005" x2="814.5500000000002" y2="379.2500000000001" stroke="#ff5d4a" stroke-width="3" stroke-linecap="round" opacity="0.88"/>
<line x1="814.4999999999999" y1="379.20000000000005" x2="801.9999999999999" y2="379.20000000000005" stroke="#ff5d4a" stroke-width="3" stroke-linecap="round" opacity="0.88"/>
<line x1="826.0300000000001" y1="98.10000000000002" x2="826.0300000000001" y2="90.40000000000006" stroke="#ff5d4a" stroke-width="3" stroke-linecap="round" opacity="0.88"/>
<line x1="819.53" y1="98.10000000000002" x2="826.0300000000001" y2="98.10000000000002" stroke="#ff5d4a" stroke-width="3" stroke-linecap="round" opacity="0.88"/>
<line x1="825.6" y1="117.65" x2="812.8999999999999" y2="117.65" stroke="#ff5d4a" stroke-width="3" stroke-linecap="round" opacity="0.88"/>
<line x1="715.47" y1="203.15000000000012" x2="715.47" y2="249.30000000000007" stroke="#ff5d4a" stroke-width="3" stroke-linecap="round" opacity="0.88"/>
<line x1="718.47" y1="203.15000000000012" x2="695.8199999999999" y2="203.15000000000012" stroke="#ff5d4a" stroke-width="3" stroke-linecap="round" opacity="0.88"/>
<line x1="715.47" y1="249.30000000000007" x2="725.0200000000001" y2="258.85" stroke="#ff5d4a" stroke-width="3" stroke-linecap="round" opacity="0.88"/>
<line x1="800.3" y1="113.15000000000012" x2="794.3000000000001" y2="107.15000000000003" stroke="#ff5d4a" stroke-width="3" stroke-linecap="round" opacity="0.88"/>
<line x1="825.6" y1="104.17000000000002" x2="819.53" y2="98.10000000000002" stroke="#ff5d4a" stroke-width="3" stroke-linecap="round" opacity="0.88"/>
<line x1="826.0300000000001" y1="90.40000000000006" x2="822.8299999999999" y2="87.20000000000013" stroke="#ff5d4a" stroke-width="3" stroke-linecap="round" opacity="0.88"/>
<line x1="814.5500000000002" y1="379.2500000000001" x2="827.25" y2="379.2500000000001" stroke="#ff5d4a" stroke-width="3" stroke-linecap="round" opacity="0.88"/>
<line x1="765.47" y1="107.15000000000003" x2="721.4699999999999" y2="151.1500000000001" stroke="#ff5d4a" stroke-width="3" stroke-linecap="round" opacity="0.88"/>
<line x1="725.0200000000001" y1="258.85" x2="728.02" y2="258.85" stroke="#ff5d4a" stroke-width="3" stroke-linecap="round" opacity="0.88"/>
<line x1="695.8199999999999" y1="203.15000000000012" x2="685.47" y2="213.50000000000009" stroke="#ff5d4a" stroke-width="3" stroke-linecap="round" opacity="0.88"/>
<line x1="814.4999999999999" y1="363.3500000000001" x2="814.4999999999999" y2="379.20000000000005" stroke="#ff5d4a" stroke-width="3" stroke-linecap="round" opacity="0.88"/>
<line x1="817.5" y1="360.35000000000014" x2="814.4999999999999" y2="363.3500000000001" stroke="#ff5d4a" stroke-width="3" stroke-linecap="round" opacity="0.88"/>
<line x1="812.8999999999999" y1="117.65" x2="800.3" y2="117.65" stroke="#ff5d4a" stroke-width="3" stroke-linecap="round" opacity="0.88"/>
<line x1="794.3000000000001" y1="107.15000000000003" x2="765.47" y2="107.15000000000003" stroke="#ff5d4a" stroke-width="3" stroke-linecap="round" opacity="0.88"/>
<line x1="721.4699999999999" y1="200.15" x2="718.47" y2="203.15000000000012" stroke="#ff5d4a" stroke-width="3" stroke-linecap="round" opacity="0.88"/>
<line x1="826.0300000000001" y1="98.10000000000002" x2="832.5299999999999" y2="98.10000000000002" stroke="#ff5d4a" stroke-width="3" stroke-linecap="round" opacity="0.88"/>
<line x1="721.4699999999999" y1="151.1500000000001" x2="721.4699999999999" y2="200.15" stroke="#ff5d4a" stroke-width="3" stroke-linecap="round" opacity="0.88"/>
<line x1="825.6" y1="117.65" x2="825.6" y2="104.17000000000002" stroke="#ff5d4a" stroke-width="3" stroke-linecap="round" opacity="0.88"/>
<line x1="728.02" y1="258.85" x2="734.0199999999999" y2="252.8500000000001" stroke="#ff5d4a" stroke-width="3" stroke-linecap="round" opacity="0.88"/>
<line x1="826.5" y1="351.3300000000001" x2="817.5" y2="360.35000000000014" stroke="#ff5d4a" stroke-width="3" stroke-linecap="round" opacity="0.88"/>
<line x1="734.0199999999999" y1="252.8500000000001" x2="734.0199999999999" y2="258.85" stroke="#3e91ff" stroke-width="3" stroke-linecap="round" opacity="0.88"/>
<line x1="734.0199999999999" y1="258.85" x2="826.5" y2="351.3300000000001" stroke="#3e91ff" stroke-width="3" stroke-linecap="round" opacity="0.88"/>
<line x1="800.9000000000001" y1="344.73000000000013" x2="802.5" y2="343.13" stroke="#ff5d4a" stroke-width="2.5" stroke-linecap="round" opacity="0.88"/>
<line x1="800.9000000000001" y1="360.35000000000014" x2="802.5" y2="360.35000000000014" stroke="#ff5d4a" stroke-width="2.5" stroke-linecap="round" opacity="0.88"/>
<line x1="800.9000000000001" y1="360.35000000000014" x2="800.9000000000001" y2="344.73000000000013" stroke="#ff5d4a" stroke-width="2.5" stroke-linecap="round" opacity="0.88"/>
<line x1="789.2500000000001" y1="379.2500000000001" x2="789.2500000000001" y2="372" stroke="#ff5d4a" stroke-width="2.5" stroke-linecap="round" opacity="0.88"/>
<line x1="789.2500000000001" y1="372" x2="800.9000000000001" y2="360.35000000000014" stroke="#ff5d4a" stroke-width="2.5" stroke-linecap="round" opacity="0.88"/>
<line x1="827.25" y1="437.2500000000001" x2="868.6500000000001" y2="437.2500000000001" stroke="#ff5d4a" stroke-width="3" stroke-linecap="round" opacity="0.88"/>
<line x1="801.9499999999999" y1="437.2500000000001" x2="814.5500000000002" y2="437.2500000000001" stroke="#ff5d4a" stroke-width="3" stroke-linecap="round" opacity="0.88"/>
<line x1="814.5500000000002" y1="437.2500000000001" x2="827.25" y2="437.2500000000001" stroke="#ff5d4a" stroke-width="3" stroke-linecap="round" opacity="0.88"/>
<line x1="868.6500000000001" y1="437.2500000000001" x2="879.2500000000001" y2="426.6500000000001" stroke="#ff5d4a" stroke-width="3" stroke-linecap="round" opacity="0.88"/>
<line x1="801.9499999999999" y1="437.2500000000001" x2="801.9499999999999" y2="420.6500000000001" stroke="#ff5d4a" stroke-width="3" stroke-linecap="round" opacity="0.88"/>
<line x1="789.2500000000001" y1="437.2500000000001" x2="789.2500000000001" y2="455.6200000000001" stroke="#ff5d4a" stroke-width="3" stroke-linecap="round" opacity="0.88"/>
<line x1="789.2500000000001" y1="437.2500000000001" x2="801.9499999999999" y2="437.2500000000001" stroke="#ff5d4a" stroke-width="3" stroke-linecap="round" opacity="0.88"/>
<line x1="801.9499999999999" y1="420.6500000000001" x2="808.2499999999999" y2="414.35" stroke="#ff5d4a" stroke-width="3" stroke-linecap="round" opacity="0.88"/>
<line x1="789.2500000000001" y1="455.6200000000001" x2="794.0999999999999" y2="460.47000000000014" stroke="#ff5d4a" stroke-width="3" stroke-linecap="round" opacity="0.88"/>
<line x1="832.8299999999999" y1="68.10000000000002" x2="865.8299999999999" y2="101.1" stroke="#ff5d4a" stroke-width="3" stroke-linecap="round" opacity="0.88"/>
<line x1="826.3300000000002" y1="68.10000000000002" x2="819.83" y2="68.10000000000002" stroke="#ff5d4a" stroke-width="3" stroke-linecap="round" opacity="0.88"/>
<line x1="837.8299999999999" y1="40" x2="808.98" y2="40" stroke="#ff5d4a" stroke-width="3" stroke-linecap="round" opacity="0.88"/>
<line x1="824.7300000000001" y1="68.10000000000002" x2="840.8299999999999" y2="52.00000000000003" stroke="#ff5d4a" stroke-width="3" stroke-linecap="round" opacity="0.88"/>
<line x1="840.8299999999999" y1="43.000000000000114" x2="837.8299999999999" y2="40" stroke="#ff5d4a" stroke-width="3" stroke-linecap="round" opacity="0.88"/>
<line x1="832.8299999999999" y1="68.10000000000002" x2="826.3300000000002" y2="68.10000000000002" stroke="#ff5d4a" stroke-width="3" stroke-linecap="round" opacity="0.88"/>
<line x1="840.8299999999999" y1="52.00000000000003" x2="840.8299999999999" y2="43.000000000000114" stroke="#ff5d4a" stroke-width="3" stroke-linecap="round" opacity="0.88"/>
<line x1="865.8299999999999" y1="101.1" x2="865.8299999999999" y2="143.23000000000008" stroke="#ff5d4a" stroke-width="3" stroke-linecap="round" opacity="0.88"/>
<line x1="865.8299999999999" y1="143.23000000000008" x2="879.2500000000001" y2="156.65000000000006" stroke="#ff5d4a" stroke-width="3" stroke-linecap="round" opacity="0.88"/>
<line x1="819.83" y1="68.10000000000002" x2="824.7300000000001" y2="68.10000000000002" stroke="#ff5d4a" stroke-width="3" stroke-linecap="round" opacity="0.88"/>
<line x1="808.98" y1="40" x2="792.2399999999999" y2="56.740000000000066" stroke="#ff5d4a" stroke-width="3" stroke-linecap="round" opacity="0.88"/>
<line x1="696.53" y1="143.5900000000001" x2="710.53" y2="129.59000000000003" stroke="#ff5d4a" stroke-width="2" stroke-linecap="round" opacity="0.88"/>
<line x1="688.5300000000001" y1="143.5900000000001" x2="696.53" y2="143.5900000000001" stroke="#ff5d4a" stroke-width="2" stroke-linecap="round" opacity="0.88"/>
<line x1="861.31" y1="129.59000000000003" x2="879.2500000000001" y2="111.65000000000006" stroke="#3e91ff" stroke-width="2" stroke-linecap="round" opacity="0.88"/>
<line x1="710.53" y1="129.59000000000003" x2="861.31" y2="129.59000000000003" stroke="#3e91ff" stroke-width="2" stroke-linecap="round" opacity="0.88"/>
<line x1="77.54999999999995" y1="178.6" x2="51.50000000000006" y2="204.65000000000003" stroke="#ff5d4a" stroke-width="3" stroke-linecap="round" opacity="0.88"/>
<line x1="607.7600000000001" y1="208.49000000000004" x2="499.03999999999996" y2="208.49000000000004" stroke="#ff5d4a" stroke-width="3" stroke-linecap="round" opacity="0.88"/>
<line x1="469.1499999999999" y1="178.6" x2="77.54999999999995" y2="178.6" stroke="#ff5d4a" stroke-width="3" stroke-linecap="round" opacity="0.88"/>
<line x1="709.76" y1="190.49000000000007" x2="697.7600000000001" y2="190.49000000000007" stroke="#ff5d4a" stroke-width="3" stroke-linecap="round" opacity="0.88"/>
<line x1="499.03999999999996" y1="208.49000000000004" x2="469.1499999999999" y2="178.6" stroke="#ff5d4a" stroke-width="3" stroke-linecap="round" opacity="0.88"/>
<line x1="649.76" y1="238.49000000000004" x2="637.7600000000001" y2="238.49000000000004" stroke="#3e91ff" stroke-width="3" stroke-linecap="round" opacity="0.88"/>
<line x1="697.7600000000001" y1="190.49000000000007" x2="649.76" y2="238.49000000000004" stroke="#3e91ff" stroke-width="3" stroke-linecap="round" opacity="0.88"/>
<line x1="637.7600000000001" y1="238.49000000000004" x2="607.7600000000001" y2="208.49000000000004" stroke="#3e91ff" stroke-width="3" stroke-linecap="round" opacity="0.88"/>
<line x1="752.5999999999999" y1="202.05000000000013" x2="727.5200000000001" y2="227.13000000000008" stroke="#ff5d4a" stroke-width="2.5" stroke-linecap="round" opacity="0.88"/>
<line x1="777.5999999999999" y1="139.9000000000001" x2="767.5999999999999" y2="149.9000000000001" stroke="#ff5d4a" stroke-width="2.5" stroke-linecap="round" opacity="0.88"/>
<line x1="777.5999999999999" y1="127.65" x2="777.5999999999999" y2="139.9000000000001" stroke="#ff5d4a" stroke-width="2.5" stroke-linecap="round" opacity="0.88"/>
<line x1="752.5999999999999" y1="152.4000000000001" x2="752.5999999999999" y2="202.05000000000013" stroke="#ff5d4a" stroke-width="2.5" stroke-linecap="round" opacity="0.88"/>
<line x1="725.0200000000001" y1="227.13000000000008" x2="725.0200000000001" y2="243.85000000000005" stroke="#ff5d4a" stroke-width="2.5" stroke-linecap="round" opacity="0.88"/>
<line x1="727.5200000000001" y1="227.13000000000008" x2="725.0200000000001" y2="227.13000000000008" stroke="#ff5d4a" stroke-width="2.5" stroke-linecap="round" opacity="0.88"/>
<line x1="755.0999999999999" y1="149.9000000000001" x2="752.5999999999999" y2="152.4000000000001" stroke="#ff5d4a" stroke-width="2.5" stroke-linecap="round" opacity="0.88"/>
<line x1="767.5999999999999" y1="149.9000000000001" x2="755.0999999999999" y2="149.9000000000001" stroke="#ff5d4a" stroke-width="2.5" stroke-linecap="round" opacity="0.88"/>
<line x1="787.5999999999999" y1="117.65" x2="777.5999999999999" y2="127.65" stroke="#ff5d4a" stroke-width="2.5" stroke-linecap="round" opacity="0.88"/>
<line x1="812.8999999999999" y1="159.05" x2="806.5999999999999" y2="152.75000000000006" stroke="#ff5d4a" stroke-width="3" stroke-linecap="round" opacity="0.88"/>
<line x1="787.5999999999999" y1="175.65000000000012" x2="778.6699999999998" y2="175.65000000000012" stroke="#ff5d4a" stroke-width="3" stroke-linecap="round" opacity="0.88"/>
<line x1="812.8999999999999" y1="175.65000000000012" x2="800.3" y2="175.65000000000012" stroke="#ff5d4a" stroke-width="3" stroke-linecap="round" opacity="0.88"/>
<line x1="812.8999999999999" y1="175.65000000000012" x2="812.8999999999999" y2="159.05" stroke="#ff5d4a" stroke-width="3" stroke-linecap="round" opacity="0.88"/>
<line x1="825.6" y1="175.65000000000012" x2="812.8999999999999" y2="175.65000000000012" stroke="#ff5d4a" stroke-width="3" stroke-linecap="round" opacity="0.88"/>
<line x1="778.6699999999998" y1="175.65000000000012" x2="765.5699999999999" y2="162.5500000000001" stroke="#ff5d4a" stroke-width="3" stroke-linecap="round" opacity="0.88"/>
<line x1="800.3" y1="175.65000000000012" x2="787.5999999999999" y2="175.65000000000012" stroke="#ff5d4a" stroke-width="3" stroke-linecap="round" opacity="0.88"/>
<line x1="688.5300000000001" y1="163.5900000000001" x2="696.0300000000001" y2="163.5900000000001" stroke="#ff5d4a" stroke-width="2.5" stroke-linecap="round" opacity="0.88"/>
<line x1="816.0300000000001" y1="341.6600000000001" x2="817.5" y2="343.13" stroke="#ff5d4a" stroke-width="2.5" stroke-linecap="round" opacity="0.88"/>
<line x1="816.0300000000001" y1="283.5900000000001" x2="816.0300000000001" y2="341.6600000000001" stroke="#ff5d4a" stroke-width="2.5" stroke-linecap="round" opacity="0.88"/>
<line x1="696.0300000000001" y1="163.5900000000001" x2="708.5300000000001" y2="176.0900000000001" stroke="#ff5d4a" stroke-width="2.5" stroke-linecap="round" opacity="0.88"/>
<line x1="816.0300000000001" y1="281.0900000000001" x2="816.0300000000001" y2="283.5900000000001" stroke="#3e91ff" stroke-width="2.5" stroke-linecap="round" opacity="0.88"/>
<line x1="711.0300000000001" y1="176.0900000000001" x2="816.0300000000001" y2="281.0900000000001" stroke="#3e91ff" stroke-width="2.5" stroke-linecap="round" opacity="0.88"/>
<line x1="708.5300000000001" y1="176.0900000000001" x2="711.0300000000001" y2="176.0900000000001" stroke="#3e91ff" stroke-width="2.5" stroke-linecap="round" opacity="0.88"/>
<line x1="826.0300000000001" y1="56.09000000000009" x2="826.0300000000001" y2="52.91000000000011" stroke="#ff5d4a" stroke-width="2.5" stroke-linecap="round" opacity="0.88"/>
<line x1="826.0300000000001" y1="52.91000000000011" x2="830.4300000000001" y2="48.51000000000013" stroke="#ff5d4a" stroke-width="2.5" stroke-linecap="round" opacity="0.88"/>
<line x1="698.5300000000001" y1="153.5900000000001" x2="698.5300000000001" y2="151.0900000000001" stroke="#ff5d4a" stroke-width="2.5" stroke-linecap="round" opacity="0.88"/>
<line x1="693.5300000000001" y1="158.5900000000001" x2="698.5300000000001" y2="153.5900000000001" stroke="#ff5d4a" stroke-width="2.5" stroke-linecap="round" opacity="0.88"/>
<line x1="688.5300000000001" y1="158.5900000000001" x2="693.5300000000001" y2="158.5900000000001" stroke="#ff5d4a" stroke-width="2.5" stroke-linecap="round" opacity="0.88"/>
<line x1="681.0300000000001" y1="133.5900000000001" x2="681.0300000000001" y2="123.59000000000009" stroke="#3e91ff" stroke-width="2.5" stroke-linecap="round" opacity="0.88"/>
<line x1="748.5300000000001" y1="56.09000000000009" x2="826.0300000000001" y2="56.09000000000009" stroke="#3e91ff" stroke-width="2.5" stroke-linecap="round" opacity="0.88"/>
<line x1="698.5300000000001" y1="151.0900000000001" x2="681.0300000000001" y2="133.5900000000001" stroke="#3e91ff" stroke-width="2.5" stroke-linecap="round" opacity="0.88"/>
<line x1="681.0300000000001" y1="123.59000000000009" x2="748.5300000000001" y2="56.09000000000009" stroke="#3e91ff" stroke-width="2.5" stroke-linecap="round" opacity="0.88"/>
<line x1="813.3299999999999" y1="68.10000000000002" x2="813.3299999999999" y2="50.61000000000007" stroke="#ff5d4a" stroke-width="2.5" stroke-linecap="round" opacity="0.88"/>
<line x1="813.3299999999999" y1="50.61000000000007" x2="815.4300000000001" y2="48.51000000000013" stroke="#ff5d4a" stroke-width="2.5" stroke-linecap="round" opacity="0.88"/>
<line x1="681.9300000000001" y1="131.99000000000012" x2="683.9300000000001" y2="131.99000000000012" stroke="#ff5d4a" stroke-width="2" stroke-linecap="round" opacity="0.88"/>
<line x1="891.9300000000001" y1="193.99" x2="891.9300000000001" y2="368.97" stroke="#ff5d4a" stroke-width="2" stroke-linecap="round" opacity="0.88"/>
<line x1="683.9300000000001" y1="131.99000000000012" x2="689.93" y2="125.99000000000004" stroke="#ff5d4a" stroke-width="2" stroke-linecap="round" opacity="0.88"/>
<line x1="891.9300000000001" y1="368.97" x2="879.2500000000001" y2="381.6500000000001" stroke="#ff5d4a" stroke-width="2" stroke-linecap="round" opacity="0.88"/>
<line x1="881.9300000000001" y1="183.99" x2="891.9300000000001" y2="193.99" stroke="#ff5d4a" stroke-width="2" stroke-linecap="round" opacity="0.88"/>
<line x1="891.9300000000001" y1="103.99000000000001" x2="891.9300000000001" y2="173.99" stroke="#3e91ff" stroke-width="2" stroke-linecap="round" opacity="0.88"/>
<line x1="715.9299999999998" y1="99.9900000000001" x2="887.9300000000001" y2="99.9900000000001" stroke="#3e91ff" stroke-width="2" stroke-linecap="round" opacity="0.88"/>
<line x1="891.9300000000001" y1="173.99" x2="881.9300000000001" y2="183.99" stroke="#3e91ff" stroke-width="2" stroke-linecap="round" opacity="0.88"/>
<line x1="887.9300000000001" y1="99.9900000000001" x2="891.9300000000001" y2="103.99000000000001" stroke="#3e91ff" stroke-width="2" stroke-linecap="round" opacity="0.88"/>
<line x1="689.93" y1="125.99000000000004" x2="715.9299999999998" y2="99.9900000000001" stroke="#3e91ff" stroke-width="2" stroke-linecap="round" opacity="0.88"/>
<line x1="696.0300000000001" y1="173.5900000000001" x2="698.5300000000001" y2="176.0900000000001" stroke="#ff5d4a" stroke-width="2.5" stroke-linecap="round" opacity="0.88"/>
<line x1="688.5300000000001" y1="173.5900000000001" x2="696.0300000000001" y2="173.5900000000001" stroke="#ff5d4a" stroke-width="2.5" stroke-linecap="round" opacity="0.88"/>
<line x1="727.5200000000001" y1="209.63000000000008" x2="725.0200000000001" y2="212.13000000000008" stroke="#ff5d4a" stroke-width="2.5" stroke-linecap="round" opacity="0.88"/>
<line x1="727.5200000000001" y1="203.5900000000001" x2="727.5200000000001" y2="209.63000000000008" stroke="#ff5d4a" stroke-width="2.5" stroke-linecap="round" opacity="0.88"/>
<line x1="698.5300000000001" y1="176.0900000000001" x2="726.0300000000001" y2="203.5900000000001" stroke="#3e91ff" stroke-width="2.5" stroke-linecap="round" opacity="0.88"/>
<line x1="726.0300000000001" y1="203.5900000000001" x2="727.5200000000001" y2="203.5900000000001" stroke="#3e91ff" stroke-width="2.5" stroke-linecap="round" opacity="0.88"/>
<line x1="692.5299999999999" y1="138.5900000000001" x2="696.53" y2="134.59000000000003" stroke="#ff5d4a" stroke-width="2" stroke-linecap="round" opacity="0.88"/>
<line x1="688.5300000000001" y1="138.5900000000001" x2="692.5299999999999" y2="138.5900000000001" stroke="#ff5d4a" stroke-width="2" stroke-linecap="round" opacity="0.88"/>
<line x1="866.53" y1="304.59000000000003" x2="866.53" y2="388.93" stroke="#3e91ff" stroke-width="2" stroke-linecap="round" opacity="0.88"/>
<line x1="696.53" y1="134.59000000000003" x2="866.53" y2="304.59000000000003" stroke="#3e91ff" stroke-width="2" stroke-linecap="round" opacity="0.88"/>
<line x1="866.53" y1="388.93" x2="879.2500000000001" y2="401.6500000000001" stroke="#3e91ff" stroke-width="2" stroke-linecap="round" opacity="0.88"/></g>
<g><circle cx="619.4300000000001" cy="159.49000000000012" r="3" fill="#f7ca45" stroke="#171b23" stroke-width="1"/>
<circle cx="624.4300000000001" cy="209.49000000000012" r="3" fill="#f7ca45" stroke="#171b23" stroke-width="1"/>
<circle cx="662.51" cy="245.87000000000003" r="4" fill="#f7ca45" stroke="#171b23" stroke-width="1"/>
<circle cx="692.51" cy="242.87000000000006" r="4" fill="#f7ca45" stroke="#171b23" stroke-width="1"/>
<circle cx="638.1600000000001" cy="229.20000000000002" r="3" fill="#f7ca45" stroke="#171b23" stroke-width="1"/>
<circle cx="650.6600000000001" cy="112.4900000000001" r="3" fill="#f7ca45" stroke="#171b23" stroke-width="1"/>
<circle cx="826.5" cy="351.3300000000001" r="4" fill="#f7ca45" stroke="#171b23" stroke-width="1"/>
<circle cx="734.0199999999999" cy="252.8500000000001" r="4" fill="#f7ca45" stroke="#171b23" stroke-width="1"/>
<circle cx="710.53" cy="129.59000000000003" r="3" fill="#f7ca45" stroke="#171b23" stroke-width="1"/>
<circle cx="697.7600000000001" cy="190.49000000000007" r="4" fill="#f7ca45" stroke="#171b23" stroke-width="1"/>
<circle cx="607.7600000000001" cy="208.49000000000004" r="4" fill="#f7ca45" stroke="#171b23" stroke-width="1"/>
<circle cx="708.5300000000001" cy="176.0900000000001" r="3" fill="#f7ca45" stroke="#171b23" stroke-width="1"/>
<circle cx="816.0300000000001" cy="283.5900000000001" r="3" fill="#f7ca45" stroke="#171b23" stroke-width="1"/>
<circle cx="826.0300000000001" cy="56.09000000000009" r="3" fill="#f7ca45" stroke="#171b23" stroke-width="1"/>
<circle cx="698.5300000000001" cy="151.0900000000001" r="3" fill="#f7ca45" stroke="#171b23" stroke-width="1"/>
<circle cx="689.93" cy="125.99000000000004" r="3" fill="#f7ca45" stroke="#171b23" stroke-width="1"/>
<circle cx="881.9300000000001" cy="183.99" r="3" fill="#f7ca45" stroke="#171b23" stroke-width="1"/>
<circle cx="698.5300000000001" cy="176.0900000000001" r="3" fill="#f7ca45" stroke="#171b23" stroke-width="1"/>
<circle cx="727.5200000000001" cy="203.5900000000001" r="3" fill="#f7ca45" stroke="#171b23" stroke-width="1"/>
<circle cx="696.53" cy="134.59000000000003" r="3" fill="#f7ca45" stroke="#171b23" stroke-width="1"/></g>
<g><g><circle cx="607.09" cy="178.6" r="3" fill="#d8dee9" stroke="#11151c" stroke-width="1"/><text x="612.09" y="173.6" font-size="11" fill="#eef2f8">C2</text></g>
<g><circle cx="675.1599999999999" cy="259.88" r="3" fill="#d8dee9" stroke="#11151c" stroke-width="1"/><text x="680.1599999999999" y="254.88" font-size="11" fill="#eef2f8">R5</text></g>
<g><circle cx="675.1599999999999" cy="235.1700000000001" r="3" fill="#d8dee9" stroke="#11151c" stroke-width="1"/><text x="680.1599999999999" y="230.1700000000001" font-size="11" fill="#eef2f8">C1</text></g>
<g><circle cx="863.8399999999999" cy="246.95000000000007" r="3" fill="#d8dee9" stroke="#11151c" stroke-width="1"/><text x="868.8399999999999" y="241.95000000000007" font-size="11" fill="#eef2f8">C6</text></g>
<g><circle cx="640.6600000000001" cy="236.70000000000002" r="3" fill="#d8dee9" stroke="#11151c" stroke-width="1"/><text x="645.6600000000001" y="231.70000000000002" font-size="11" fill="#eef2f8">R6</text></g>
<g><circle cx="608.94" cy="219.48000000000008" r="3" fill="#d8dee9" stroke="#11151c" stroke-width="1"/><text x="613.94" y="214.48000000000008" font-size="11" fill="#eef2f8">R4</text></g>
<g><circle cx="40" cy="71.65000000000006" r="3" fill="#d8dee9" stroke="#11151c" stroke-width="1"/><text x="45" y="66.65000000000006" font-size="11" fill="#eef2f8">#HOLE_1</text></g>
<g><circle cx="783.21" cy="291.31" r="3" fill="#d8dee9" stroke="#11151c" stroke-width="1"/><text x="788.21" y="286.31" font-size="11" fill="#eef2f8">C8</text></g>
<g><circle cx="692.4700000000001" cy="213.50000000000009" r="3" fill="#d8dee9" stroke="#11151c" stroke-width="1"/><text x="697.4700000000001" y="208.50000000000009" font-size="11" fill="#eef2f8">C4</text></g>
<g><circle cx="808.2499999999999" cy="408.25" r="3" fill="#d8dee9" stroke="#11151c" stroke-width="1"/><text x="813.2499999999999" y="403.25" font-size="11" fill="#eef2f8">Q3</text></g>
<g><circle cx="892.75" cy="121.65000000000006" r="3" fill="#d8dee9" stroke="#11151c" stroke-width="1"/><text x="897.75" y="116.65000000000006" font-size="11" fill="#eef2f8">J3</text></g>
<g><circle cx="518.6500000000001" cy="178.6" r="3" fill="#d8dee9" stroke="#11151c" stroke-width="1"/><text x="523.6500000000001" y="173.6" font-size="11" fill="#eef2f8">L1</text></g>
<g><circle cx="725.6600000000001" cy="190.49000000000007" r="3" fill="#d8dee9" stroke="#11151c" stroke-width="1"/><text x="730.6600000000001" y="185.49000000000007" font-size="11" fill="#eef2f8">C9</text></g>
<g><circle cx="651.6999999999998" cy="213.50000000000009" r="3" fill="#d8dee9" stroke="#11151c" stroke-width="1"/><text x="656.6999999999998" y="208.50000000000009" font-size="11" fill="#eef2f8">R1</text></g>
<g><circle cx="806.5999999999999" cy="146.65000000000006" r="3" fill="#d8dee9" stroke="#11151c" stroke-width="1"/><text x="811.5999999999999" y="141.65000000000006" font-size="11" fill="#eef2f8">Q1</text></g>
<g><circle cx="810" cy="343.13" r="3" fill="#d8dee9" stroke="#11151c" stroke-width="1"/><text x="815" y="338.13" font-size="11" fill="#eef2f8">R8</text></g>
<g><circle cx="725.0200000000001" cy="251.35000000000005" r="3" fill="#d8dee9" stroke="#11151c" stroke-width="1"/><text x="730.0200000000001" y="246.35000000000005" font-size="11" fill="#eef2f8">R3</text></g>
<g><circle cx="792.2399999999999" cy="72.6400000000001" r="3" fill="#d8dee9" stroke="#11151c" stroke-width="1"/><text x="797.2399999999999" y="67.6400000000001" font-size="11" fill="#eef2f8">C12</text></g>
<g><circle cx="810" cy="360.35000000000014" r="3" fill="#d8dee9" stroke="#11151c" stroke-width="1"/><text x="815" y="355.35000000000014" font-size="11" fill="#eef2f8">R9</text></g>
<g><circle cx="783.21" cy="317.17000000000013" r="3" fill="#d8dee9" stroke="#11151c" stroke-width="1"/><text x="788.21" y="312.17000000000013" font-size="11" fill="#eef2f8">C7</text></g>
<g><circle cx="740" cy="67.15000000000003" r="3" fill="#d8dee9" stroke="#11151c" stroke-width="1"/><text x="745" y="62.150000000000034" font-size="11" fill="#eef2f8">SW1</text></g>
<g><circle cx="822.9300000000001" cy="48.51000000000013" r="3" fill="#d8dee9" stroke="#11151c" stroke-width="1"/><text x="827.9300000000001" y="43.51000000000013" font-size="11" fill="#eef2f8">R7</text></g>
<g><circle cx="958.92" cy="256.6500000000001" r="3" fill="#d8dee9" stroke="#11151c" stroke-width="1"/><text x="963.92" y="251.6500000000001" font-size="11" fill="#eef2f8">J1</text></g>
<g><circle cx="822.9300000000001" cy="83.10000000000002" r="3" fill="#d8dee9" stroke="#11151c" stroke-width="1"/><text x="827.9300000000001" y="78.10000000000002" font-size="11" fill="#eef2f8">Q2</text></g>
<g><circle cx="810" cy="460.47000000000014" r="3" fill="#d8dee9" stroke="#11151c" stroke-width="1"/><text x="815" y="455.47000000000014" font-size="11" fill="#eef2f8">C13</text></g>
<g><circle cx="659.4300000000001" cy="161.0900000000001" r="3" fill="#d8dee9" stroke="#11151c" stroke-width="1"/><text x="664.4300000000001" y="156.0900000000001" font-size="11" fill="#eef2f8">U1</text></g>
<g><circle cx="783.21" cy="242.87000000000006" r="3" fill="#d8dee9" stroke="#11151c" stroke-width="1"/><text x="788.21" y="237.87000000000006" font-size="11" fill="#eef2f8">C11</text></g>
<g><circle cx="40" cy="441.6500000000001" r="3" fill="#d8dee9" stroke="#11151c" stroke-width="1"/><text x="45" y="436.6500000000001" font-size="11" fill="#eef2f8">#HOLE_2</text></g>
<g><circle cx="892.75" cy="391.6500000000001" r="3" fill="#d8dee9" stroke="#11151c" stroke-width="1"/><text x="897.75" y="386.6500000000001" font-size="11" fill="#eef2f8">J4</text></g>
<g><circle cx="863.8399999999999" cy="272.81000000000006" r="3" fill="#d8dee9" stroke="#11151c" stroke-width="1"/><text x="868.8399999999999" y="267.81000000000006" font-size="11" fill="#eef2f8">C5</text></g>
<g><circle cx="765.5699999999999" cy="146.65000000000006" r="3" fill="#d8dee9" stroke="#11151c" stroke-width="1"/><text x="770.5699999999999" y="141.65000000000006" font-size="11" fill="#eef2f8">C10</text></g>
<g><circle cx="863.8399999999999" cy="294.59000000000003" r="3" fill="#d8dee9" stroke="#11151c" stroke-width="1"/><text x="868.8399999999999" y="289.59000000000003" font-size="11" fill="#eef2f8">C3</text></g>
<g><circle cx="725.0200000000001" cy="219.63000000000008" r="3" fill="#d8dee9" stroke="#11151c" stroke-width="1"/><text x="730.0200000000001" y="214.63000000000008" font-size="11" fill="#eef2f8">R2</text></g>
<g><circle cx="51.50000000000006" cy="254.65000000000003" r="3" fill="#d8dee9" stroke="#11151c" stroke-width="1"/><text x="56.50000000000006" y="249.65000000000003" font-size="11" fill="#eef2f8">J2</text></g></g>
<g transform="translate(14,22)" font-family="Segoe UI,Arial,sans-serif" font-size="13" fill="#eef2f8">
  <rect x="-8" y="-16" width="315" height="25" rx="5" fill="#080b10" opacity="0.78"/>
  <text x="0" y="2">F.Cu</text><line x1="35" y1="-2" x2="65" y2="-2" stroke="#ff5d4a" stroke-width="4"/>
  <text x="78" y="2">B.Cu</text><line x1="115" y1="-2" x2="145" y2="-2" stroke="#3e91ff" stroke-width="4"/>
  <text x="160" y="2">via</text><circle cx="195" cy="-2" r="5" fill="#f7ca45"/>
  <text x="212" y="2">197 seg / 20 vias</text>
</g>
</svg>